<svg width="211px" height="45px" viewBox="0 0 444 94" version="1.1" xmlns="http://www.w3.org/2000/svg" xmlns:xlink="http://www.w3.org/1999/xlink">
  <g id="Page-1" stroke="none" stroke-width="1" fill="none" fill-rule="evenodd">
    <g id="Group-3" transform="translate(0.730000, 0.760000)" fill="#000000" fill-rule="nonzero">
      <g id="Group-2" transform="translate(143.684545, 0.756364)">
        <path d="M56,6.48529412 L44.6868687,34.644385 C43.9515152,36.5254011 42.7353535,38.209893 41.0949495,39.6417112 C39.2565657,41.2139037 37.3616162,42 35.3818182,42 L0,42 L8.82424242,33.2967914 L19.5434343,6.45721925 L13.7737374,0 L50.0888889,0 L56,6.48529412 Z M42,8.90909091 L34.248115,8.90909091 L24.1818182,33.0909091 L32.1567791,33.0909091 L42,8.90909091 Z" id="Shape"></path>
        <path d="M101.998221,0.0280561122 L98.916988,8.47294589 L94.799341,8.47294589 L90.7657275,33.5270541 L95.1074642,33.5270541 L94.1550832,35.8276553 C93.2027023,38.1282565 92.0822541,39.6713427 90.7377163,40.4288577 C88.9730104,41.4669339 85.8357555,42 81.381974,42 L73.9590048,42 L76.3679684,31.0581162 L68.3007415,31.0581162 L62.1382765,42 L41.9982205,42 L50.9618059,35.0140281 L69.3371561,6.45290581 L64.4071841,0 L101.998221,0 L101.998221,0.0280561122 Z M82.8492843,7.63636364 L73.9131141,22.9090909 L79.4192392,22.9090909 L82.8492843,7.63636364 Z" id="Shape"></path>
        <path d="M146.585455,0.483636364 L141.671998,12.8002696 L129.47211,12.8002696 L130.895896,9.23714338 L122.855695,9.23714338 L119.561446,17.2050792 L134.748492,17.2050792 C137.903154,17.2050792 139.494444,18.4676043 139.494444,20.9926544 C139.494444,21.9465622 139.299022,22.9285261 138.880262,23.9385462 L134.329731,35.132935 C133.520128,37.1249189 132.319681,38.8082857 130.728391,40.1830352 C128.94168,41.7261213 127.099134,42.4836364 125.144919,42.4836364 L96.5854545,42.4836364 L101.694332,29.5778247 L115.094667,29.5778247 L113.531295,33.6179049 L121.096901,33.6179049 L124.530737,24.9766223 L110.962897,24.9766223 L105.072333,18.3273237 L109.650781,6.62792494 C110.376633,4.80427765 111.967922,3.3173037 114.452568,2.11089087 C116.685957,1.0167025 118.863511,0.483636364 121.013149,0.483636364 L146.585455,0.483636364 Z" id="Path"></path>
        <path d="M193.585455,0.483636364 L190.375122,8.56379668 L187.579919,8.56379668 L177.589145,33.9826344 L182.100215,33.9826344 L181.13158,36.3112917 C179.443388,40.4355402 176.233056,42.4836364 171.472908,42.4836364 L160.347447,42.4836364 L167.543019,24.0227145 L159.517189,24.0227145 L155.5873,33.9826344 L160.09837,33.9826344 L159.129735,36.3112917 C157.441543,40.4355402 154.231211,42.4836364 149.471063,42.4836364 L133.585455,42.4836364 L142.220141,33.7862416 L152.709071,6.96459829 L150.218296,0.511692476 L168.954458,0.511692476 L162.340067,16.0828348 L170.393573,16.0828348 L175.15372,4.49566041 L171.749661,0.511692476 L193.585455,0.511692476 L193.585455,0.483636364 Z" id="Path"></path>
      </g>
      <g id="Group" transform="translate(168.270000, 49.756364)">
        <path d="M45,28.2216043 C44.2513863,30.2429947 43.3641405,32.5451337 42.3659889,35.1560963 C41.6451017,37.0371123 40.4805915,38.6935294 38.844732,40.1253476 C37.0425139,41.6975401 35.1848429,42.4836364 33.2439926,42.4836364 L0,42.4836364 L8.65064695,33.7804278 L19.1589649,6.94085561 L13.5027726,0.483636364 L38.5674677,0.483636364 L35.2125693,8.82187166 L32.3567468,8.82187166 L22.3475046,33.4716043 L30.2772643,33.4716043 L32.7171904,28.2216043 L45,28.2216043 Z" id="Path"></path>
        <path d="M96,0.483636364 L90.9294647,13.4455602 L78.8834417,13.4455602 L80.7043522,8.87241392 L72.6083042,8.87241392 L69.4707354,16.8403498 L80.4522261,16.8403498 L77.3146573,24.6960612 L66.2771386,24.6960612 L62.7193597,33.6740171 L70.8434217,33.6740171 L73.0565283,28.1189069 L85.1025513,28.1189069 L82.6373187,34.2912516 C81.5167584,37.0968628 79.975988,39.0607907 78.0430215,40.2110913 C75.7178589,41.641953 72.132066,42.3714119 67.3696848,42.3714119 L40,42.4836364 L48.7403702,33.7862416 L59.3576788,6.96459829 L53.6428214,0.511692476 L96,0.511692476 L96,0.483636364 Z" id="Path"></path>
        <path d="M139.412766,0.0280561122 L136.332971,8.47294589 L132.189248,8.47294589 L128.157516,33.5270541 L132.497227,33.5270541 L131.54529,35.8276553 C130.593354,38.1282565 129.473429,39.6713427 128.129518,40.4288577 C126.365636,41.4669339 123.229845,42 118.778142,42 L111.358636,42 L113.766476,31.0581162 L105.703013,31.0581162 L99.5434239,42 L79.412766,42 L88.3721687,35.0140281 L106.738944,6.45290581 L101.811273,0 L139.412766,0 L139.412766,0.0280561122 Z M120.26383,7.63636364 L111.32766,22.9090909 L116.833785,22.9090909 L120.26383,7.63636364 Z" id="Shape"></path>
        <path d="M184,6.82431773 L181.2466,13.4736163 L167.0822,13.4736163 L168.842105,9.0688067 L161.036073,9.0688067 L151.015967,33.8704099 L158.821999,33.8704099 L161.518628,27.2211113 L157.65819,27.2211113 L160.894145,19.3653999 L178.975754,19.3653999 L172.617386,34.8243177 C171.794205,36.8163017 170.431697,38.5838368 168.473093,40.0708107 C166.400946,41.6700091 164.243643,42.4836364 162.057954,42.4836364 L141.364873,42.4836364 L136,35.9185061 L147.836783,6.62792494 C148.546422,4.83233376 150.136014,3.34535981 152.66233,2.11089087 C154.90479,1.0167025 157.14725,0.483636364 159.38971,0.483636364 L178.578356,0.483636364 L184,6.82431773 Z" id="Path"></path>
        <path d="M231,0.483636364 L227.417775,9.07454545 L224.371474,9.07454545 L214.104311,34.8191979 C213.14529,36.8125134 211.763172,38.5531551 209.92975,40.0130481 C207.842469,41.6694652 205.755189,42.4836364 203.611495,42.4836364 L183.331027,42.4836364 L178,36.0825668 L189.536456,7.05315508 L184.797765,0.483636364 L206.234699,0.483636364 L192.751996,33.8927273 L200.452368,33.8927273 L212.66578,4.52641711 L209.139968,0.483636364 L231,0.483636364 Z" id="Path"></path>
        <path d="M274,0.483636364 L268.929465,13.4455602 L256.883442,13.4455602 L258.704352,8.87241392 L250.608304,8.87241392 L247.470735,16.8403498 L258.452226,16.8403498 L255.314657,24.6960612 L244.277139,24.6960612 L240.71936,33.6740171 L248.843422,33.6740171 L251.056528,28.1189069 L263.102551,28.1189069 L260.637319,34.2912516 C259.516758,37.0968628 257.975988,39.0607907 256.043022,40.2110913 C253.717859,41.641953 250.132066,42.3714119 245.369685,42.3714119 L218,42.4836364 L226.74037,33.7862416 L237.357679,6.96459829 L231.642821,0.511692476 L274,0.511692476 L274,0.483636364 Z" id="Path"></path>
      </g>
      <path d="M140.66,62.55 L134.99,76 L119.79,75.92 L142.15,18.68 L138.09,19.32 L137.38,20.06 L134.49,20.71 L132.29,24.63 L125.93,23.8 L125.48,22.47 L114.41,30.15 L110.06,31.27 L106.2,32.78 L97.52,29.52 L92.45,43.25 L89.91,42.38 L85.7,48.8 L85.98,51.19 L90.91,52.65 L104.17,65.17 L101.5,70.14 L102.6,73.81 L101.2,77.61 L105.42,80.33 C105.42,80.33 101.22,81.5 95.7,81.23 C90.19,80.96 87.51,75.63 87.51,75.63 L82.54,75.16 L59.81,83.3 L58.3,90.09 L59.59,92.4 L157.93,92.4 L168.47,62.54 L140.66,62.55 Z" id="Path"></path>
      <polygon id="Path" points="50.63 79.89 42.7 79.62 18.82 86.15 8.26 92.4 52.95 92.4 46.94 81.85"></polygon>
      <path d="M68.93,46.52 C69.6,45.84 71.66,39.03 71.66,39.03 C70.17,33.86 76.68,24.19 77.91,22.63 C79.13,21.07 82.19,18.79 82.06,17.27 C81.93,15.75 83.76,13.64 83.76,13.64 L77.59,11.88 C77.59,11.88 83.27,9.75 88.05,9.32 C92.83,8.88 100.2,9.15 100.2,9.15 L99.73,12.59 L102.36,13.04 L108.92,11.57 L109.29,10.67 L109.53,9.06 L112.6,7.87 L114.43,5.75 L131.06,6.22 L129.71,9.5 L119.64,9.58 L119.02,10.15 L117.04,11.94 L116.31,17.01 L114.14,18.71 L107.62,20.7 L99.79,23.25 L105.82,25.56 L107.36,25.99 L109.05,24.12 L124.09,19.33 L125.75,17.85 L129.31,17.79 L131.98,17.84 L133.56,15.6 L143.57,15.4 L149.72,7.10542736e-15 L18.11,7.10542736e-15 L26.59,15.57 L0,90.41 L1.34,91.05 L13.49,80.09 L17.66,79.14 L21,80.6 C21,80.6 48.21,70.96 54.36,67.68 C55.94,63.42 61.36,55.46 62.78,52.97 C64.21,50.49 68.26,47.19 68.93,46.52 Z M45.32,56.56 L32.03,61.81 L48.2,19.15 L60.87,19.15 L45.32,56.56 Z" id="Shape"></path>
      <polygon id="Path" points="71.45 70.44 82 63.73 78.46 61.81"></polygon>
    </g>
  </g>
</svg>