<?xml version="1.0" encoding="UTF-8"?>
<svg width="120px" height="74.85px" viewBox="0 0 630 401" version="1.1" xmlns="http://www.w3.org/2000/svg" xmlns:xlink="http://www.w3.org/1999/xlink">
    <title>Color</title>
    <g id="Page-1" stroke="none" stroke-width="1" fill="none" fill-rule="evenodd">
        <g id="Color" transform="translate(13.441441, 14.000000)" fill-rule="nonzero">
            <path d="M119.605568,52.5390109 L5.55855856,373 L527.007765,372.865112 C527.007765,372.865112 541.293121,373.370943 548.334724,355.734292 C550.625772,350.035259 556.555542,332.870717 563.563453,312.266522 C578.21942,269.135973 597.558559,210.864208 597.558559,210.864208 L503.928828,210.89793 L484.825533,256.254136 L433.613877,255.984359 L534.45367,0 L91.0011628,0 L119.605568,52.5390109 Z" id="Path" stroke="#FFFFFF" stroke-width="26.7934" fill="#FFFFFF"></path>
            <g id="Group" transform="translate(29.558559, 0.000000)">
                <path d="M463.892308,67.7830108 L454.14497,69.9706452 L446.724852,83.1637634 L425.273964,80.3703226 L423.756213,75.894086 L386.419527,101.741828 L371.747929,105.51129 L358.728994,110.593333 L329.453254,99.6215054 L312.353254,145.831075 L303.786391,142.903011 L289.586982,164.510108 L290.531361,172.553871 L307.159172,177.467634 L351.882249,219.604839 L342.876923,236.331828 L346.586982,248.683548 L341.865089,261.472796 L356.098225,270.627204 C356.098225,270.627204 341.932544,274.564946 323.314793,273.656237 C304.730769,272.747527 295.691716,254.808925 295.691716,254.808925 L278.928994,253.227097 L202.26568,280.623011 L197.172781,303.475376 L201.523669,311.249892 L533.202959,311.249892 L568.752071,210.753333 L475.022485,210.786989 L455.898817,256.054194 L404.632544,255.784946 L480.047929,63.1384946 L466.354438,65.2924731 L463.892308,67.7830108 Z" id="Path" fill="#1400DF"></path>
                <polygon id="Path" fill="#1400DF" points="171.30355 269.18 144.523669 268.27129 64.0153846 290.282258 28.3988166 311.283548 179.128402 311.283548 158.857988 275.810215"></polygon>
                <polygon id="Path" fill="#1C00FF" points="241.524852 237.375161 277.107692 214.792043 265.13432 208.330108"></polygon>
                <path d="M61.5869822,0.370215054 L90.1881657,52.7724731 L0.50591716,304.653333 L5.02544379,306.807312 L46.0047337,269.92043 L60.0692308,266.723118 L71.3343195,271.636882 C71.3343195,271.636882 163.107692,239.192581 183.850296,228.153441 C189.17929,213.816022 207.459763,187.025914 212.249112,178.645591 C217.038462,170.265269 230.698225,159.158817 232.957988,156.870215 C235.217751,154.581613 242.16568,131.661935 242.16568,131.661935 C237.140237,114.261828 259.097041,81.7165591 263.245562,76.4662366 C267.360355,71.215914 277.681065,63.5423656 277.242604,58.4266667 C276.804142,53.3109677 282.976331,46.2095699 282.976331,46.2095699 L262.166272,40.286129 C262.166272,40.286129 281.323669,33.1174194 297.445562,31.6702151 C313.567456,30.1893548 338.424852,31.0980645 338.424852,31.0980645 L336.839645,42.6756989 L345.710059,44.1902151 L367.835503,39.2427957 L369.083432,36.2137634 L369.892899,30.7951613 L380.247337,26.7901075 L386.419527,19.6550538 L442.508876,21.2368817 L437.955621,32.2760215 L403.991716,32.5452688 L401.900592,34.4636559 L395.222485,40.4880645 L392.760355,57.5516129 L385.44142,63.2731183 L363.450888,69.9706452 L337.042012,78.5529032 L357.379882,86.3274194 L362.573964,87.7746237 L368.273964,81.4809677 L419.000592,65.3597849 L424.599408,60.3787097 L436.606509,60.1767742 L445.611834,60.3450538 L450.940828,52.806129 L484.702367,52.1330108 L505.44497,0.302903226 L61.5869822,0.302903226 L61.5869822,0.370215054 Z M153.394083,190.694409 L108.569822,208.330108 L163.107692,64.7539785 L205.840828,64.7539785 L153.394083,190.694409 Z" id="Shape" fill="#F10000"></path>
            </g>
            <g id="Group" transform="translate(0.558559, 322.000000)">
                <path d="M67.6501796,8.22625 L54.1651497,42.0775 C53.2886228,44.33875 51.838982,46.36375 49.8836527,48.085 C47.6923353,49.975 45.4335928,50.92 43.0737126,50.92 L0.865568862,50.92 L11.3838922,40.4575 L24.1609581,8.1925 L17.2835928,0.43 L60.5705389,0.43 L67.6501796,8.22625 Z M49.8162275,10.58875 L40.4441317,10.58875 L28.2738922,40.15375 L37.9156886,40.15375 L49.8162275,10.58875 Z" id="Shape" fill="#F10000"></path>
                <path d="M123.309641,0.39625 L119.601257,10.555 L114.611796,10.555 L109.757186,40.69375 L114.982635,40.69375 L113.836407,43.46125 C112.69018,46.22875 111.341677,48.085 109.723473,48.99625 C107.599581,50.245 103.823772,50.88625 98.4634731,50.88625 L89.5296407,50.88625 L92.4289222,37.72375 L82.7197006,37.72375 L75.3029341,50.88625 L51.0635928,50.88625 L61.8516168,42.4825 L83.9670659,8.125 L78.0336527,0.3625 L123.309641,0.3625 L123.309641,0.39625 Z M98.4971856,10.04875 L88.4845509,27.7675 L94.6539521,27.7675 L98.4971856,10.04875 Z" id="Shape" fill="#F10000"></path>
                <path d="M175.597844,0.39625 L169.664431,15.2125 L154.932036,15.2125 L156.651377,10.92625 L146.942156,10.92625 L142.964072,20.51125 L161.303713,20.51125 C165.113234,20.51125 167.03485,22.03 167.03485,25.0675 C167.03485,26.215 166.798862,27.39625 166.293174,28.61125 L160.798024,42.0775 C159.820359,44.47375 158.370719,46.49875 156.449102,48.1525 C154.291497,50.00875 152.066467,50.92 149.706587,50.92 L115.218623,50.92 L121.388024,35.395 L137.57006,35.395 L135.682156,40.255 L144.818263,40.255 L148.96491,29.86 L132.580599,29.86 L125.467246,21.86125 L130.996108,7.7875 C131.872635,5.59375 133.794251,3.805 136.794671,2.35375 C139.491677,1.0375 142.121257,0.39625 144.717126,0.39625 L175.597844,0.39625 Z" id="Path" fill="#F10000"></path>
                <path d="M232.706946,0.39625 L228.796287,10.11625 L225.391317,10.11625 L213.221078,40.69375 L218.716228,40.69375 L217.536287,43.495 C215.47982,48.45625 211.569162,50.92 205.770599,50.92 L192.218144,50.92 L200.983413,28.7125 L191.206766,28.7125 L186.419581,40.69375 L191.914731,40.69375 L190.73479,43.495 C188.678323,48.45625 184.767665,50.92 178.969102,50.92 L159.618084,50.92 L170.136407,40.4575 L182.913473,8.1925 L179.879341,0.43 L202.702754,0.43 L194.645449,19.16125 L204.455808,19.16125 L210.254371,5.2225 L206.107725,0.43 L232.706946,0.43 L232.706946,0.39625 Z" id="Path" fill="#F10000"></path>
                <path d="M285.939102,33.74125 C285.028862,36.17125 283.95006,38.93875 282.736407,42.0775 C281.85988,44.33875 280.443952,46.33 278.45491,48.05125 C276.263593,49.94125 274.00485,50.88625 271.64497,50.88625 L231.223593,50.88625 L241.741916,40.42375 L254.518982,8.15875 L247.641617,0.39625 L278.117784,0.39625 L274.038563,10.42 L270.566168,10.42 L258.395928,40.0525 L268.037725,40.0525 L271.004431,33.74125 L285.939102,33.74125 L285.939102,33.74125 Z" id="Path" fill="#1400DF"></path>
                <path d="M346.857725,0.39625 L340.755749,15.98875 L326.259341,15.98875 L328.450659,10.4875 L318.707725,10.4875 L314.931916,20.0725 L328.147246,20.0725 L324.371437,29.5225 L311.088683,29.5225 L306.807186,40.3225 L316.583832,40.3225 L319.247126,33.64 L333.743533,33.64 L330.776826,41.065 C329.428323,44.44 327.574132,46.8025 325.247964,48.18625 C322.44982,49.9075 318.134611,50.785 312.403473,50.785 L279.466287,50.92 L289.984611,40.4575 L302.761677,8.1925 L295.884311,0.43 L346.857725,0.43 L346.857725,0.39625 Z" id="Path" fill="#1400DF"></path>
                <path d="M399.516766,0.39625 L395.808383,10.555 L390.818922,10.555 L385.964311,40.69375 L391.18976,40.69375 L390.043533,43.46125 C388.897305,46.22875 387.548802,48.085 385.930599,48.99625 C383.806707,50.245 380.030898,50.88625 374.670599,50.88625 L365.736766,50.88625 L368.636048,37.72375 L358.926826,37.72375 L351.51006,50.88625 L327.270719,50.88625 L338.058743,42.4825 L360.174192,8.125 L354.240778,0.3625 L399.516766,0.3625 L399.516766,0.39625 Z M374.704311,10.04875 L364.691677,27.7675 L370.861078,27.7675 L374.704311,10.04875 Z" id="Shape" fill="#1400DF"></path>
                <path d="M451.737545,8.02375 L448.467425,16.0225 L431.64485,16.0225 L433.73503,10.72375 L424.464072,10.72375 L412.563533,40.55875 L421.834491,40.55875 L425.037186,32.56 L420.452275,32.56 L424.295509,23.11 L445.770419,23.11 L438.218802,41.70625 C437.241138,44.1025 435.622934,46.22875 433.296766,48.0175 C430.835749,49.94125 428.273593,50.92 425.677725,50.92 L401.101257,50.92 L394.729581,43.0225 L408.787725,7.7875 C409.630539,5.6275 411.518443,3.83875 414.518862,2.35375 C417.182156,1.0375 419.845449,0.39625 422.508743,0.39625 L445.298443,0.39625 L451.737545,8.02375 Z" id="Path" fill="#1400DF"></path>
                <path d="M508.678084,0.39625 L504.396587,10.72375 L500.755629,10.72375 L488.484251,41.6725 C487.338024,44.06875 485.686108,46.16125 483.49479,47.91625 C481.00006,49.9075 478.505329,50.88625 475.943174,50.88625 L451.703832,50.88625 L445.332156,43.19125 L459.120599,8.29375 L453.456886,0.39625 L479.078443,0.39625 L462.963832,40.55875 L472.167365,40.55875 L486.76491,5.25625 L482.550838,0.39625 L508.678084,0.39625 L508.678084,0.39625 Z" id="Path" fill="#1400DF"></path>
                <path d="M560.595449,0.39625 L554.493473,15.98875 L539.997066,15.98875 L542.188383,10.4875 L532.445449,10.4875 L528.669641,20.0725 L541.88497,20.0725 L538.109162,29.5225 L524.826407,29.5225 L520.54491,40.3225 L530.321557,40.3225 L532.98485,33.64 L547.481257,33.64 L544.514551,41.065 C543.166048,44.44 541.311856,46.8025 538.985689,48.18625 C536.187545,49.9075 531.872335,50.785 526.141198,50.785 L493.204012,50.92 L503.722335,40.4575 L516.499401,8.1925 L509.622036,0.43 L560.595449,0.43 L560.595449,0.39625 Z" id="Path" fill="#1400DF"></path>
            </g>
        </g>
    </g>
</svg>